<?xml version="1.0" encoding="UTF-8" standalone="no"?><!DOCTYPE svg PUBLIC "-//W3C//DTD SVG 1.1//EN" "http://www.w3.org/Graphics/SVG/1.1/DTD/svg11.dtd"><svg width="100%" height="100%" viewBox="0 0 3334 2500" version="1.1" xmlns="http://www.w3.org/2000/svg" xmlns:xlink="http://www.w3.org/1999/xlink" xml:space="preserve" xmlns:serif="http://www.serif.com/" style="fill-rule:evenodd;clip-rule:evenodd;stroke-linejoin:round;stroke-miterlimit:2;"><g id="BlueLayer"><g id="Logo-H" serif:id="Logo H"><path d="M1941.67,675l16.666,329.167l145.834,-25l-16.667,-329.167l120.833,-20.833l41.667,770.833l-120.833,20.833l-16.667,-329.166l-145.833,29.166l12.5,329.167l-116.667,20.833l-37.5,-775l116.667,-20.833Z" style="fill:#f5f94d;"/></g><g id="logo-S" serif:id="logo S"><path d="M1541.67,979.167c46.004,3.546 93.075,-3.533 120.833,-20.834c1.964,-67.71 -22.222,-131.944 -54.167,-166.666c-31.944,-34.723 -89.649,-43.643 -137.5,-41.667c-73.227,3.023 -161.795,61.403 -179.166,116.667c-21.096,67.113 -15.851,147.799 -0,191.666c13.257,36.691 42.103,63.789 66.666,83.334c46.668,37.132 165.443,93.441 191.667,133.333c49.487,75.281 -19.765,139.359 -41.667,145.833c-13.667,4.04 -49.35,12.847 -69.357,-6.797c-22.79,-22.376 -25.486,-75.666 -22.309,-97.369c-49.562,-0.171 -90.05,8.485 -120.834,20.833c-2.956,44.075 11.646,103.487 37.261,143.608c24.148,37.823 76.704,64.249 133.573,64.725c33.422,0.28 91.406,-15.591 133.899,-47.513c48.442,-36.391 59.903,-62.844 74.434,-102.487c20.246,-55.236 14.038,-152.503 -25,-204.166c-48.954,-64.787 -209.743,-132.712 -245.833,-191.667c-22.122,-36.137 -11.824,-76.513 8.255,-105.61c17.038,-24.691 41.166,-33.519 58.411,-31.89c31.696,2.993 84.039,31.005 70.834,116.667Z" style="fill:#f5f94d;"/></g></g><g id="YellowLayer"><g id="Logo-H1" serif:id="Logo H"><path d="M1833.33,737.5l16.667,329.167l145.833,-25l-16.666,-329.167l120.833,-20.833l41.667,770.833l-120.834,20.833l-16.666,-329.166l-145.834,29.166l12.5,329.167l-116.666,20.833l-37.5,-775l116.666,-20.833Z" style="fill:#4daef9;"/></g><g id="logo-S1" serif:id="logo S"><path d="M1433.33,1041.67c46.004,3.546 93.075,-3.533 120.834,-20.834c1.963,-67.71 -22.223,-131.944 -54.167,-166.666c-31.944,-34.723 -89.649,-43.643 -137.5,-41.667c-73.227,3.023 -161.796,61.403 -179.167,116.667c-21.095,67.113 -15.85,147.799 0,191.666c13.257,36.691 42.103,63.789 66.667,83.334c46.667,37.132 165.443,93.441 191.667,133.333c49.487,75.281 -19.765,139.359 -41.667,145.833c-13.667,4.04 -49.35,12.847 -69.357,-6.797c-22.79,-22.376 -25.486,-75.666 -22.31,-97.369c-49.561,-0.171 -90.05,8.485 -120.833,20.833c-2.956,44.075 11.646,103.487 37.261,143.608c24.148,37.823 76.704,64.249 133.572,64.725c33.422,0.28 91.406,-15.591 133.899,-47.513c48.443,-36.391 59.904,-62.844 74.435,-102.487c20.246,-55.236 14.037,-152.503 -25,-204.166c-48.955,-64.787 -209.743,-132.712 -245.834,-191.667c-22.121,-36.137 -11.824,-76.513 8.255,-105.61c17.039,-24.691 41.166,-33.519 58.412,-31.89c31.696,2.993 84.038,31.005 70.833,116.667Z" style="fill:#4daef9;"/></g></g><g id="BlackLayer"><g id="Logo-H2" serif:id="Logo H"><path d="M1758.33,779.167l16.667,329.166l145.833,-25l-16.666,-329.166l120.833,-20.834l41.667,770.834l-120.834,20.833l-16.666,-329.167l-145.834,29.167l12.5,329.167l-116.666,20.833l-37.5,-775l116.666,-20.833Z"/></g><g id="logo-S2" serif:id="logo S"><path d="M1358.33,1083.33c46.004,3.547 93.075,-3.532 120.834,-20.833c1.963,-67.71 -22.223,-131.944 -54.167,-166.667c-31.944,-34.722 -89.649,-43.642 -137.5,-41.666c-73.227,3.023 -161.796,61.403 -179.167,116.666c-21.095,67.113 -15.85,147.8 0,191.667c13.257,36.69 42.103,63.788 66.667,83.333c46.667,37.133 165.443,93.442 191.667,133.334c49.487,75.28 -19.765,139.359 -41.667,145.833c-13.667,4.04 -49.35,12.847 -69.357,-6.797c-22.79,-22.377 -25.486,-75.667 -22.31,-97.37c-49.561,-0.17 -90.05,8.486 -120.833,20.834c-2.956,44.075 11.646,103.487 37.261,143.608c24.148,37.823 76.704,64.248 133.572,64.725c33.422,0.28 91.406,-15.592 133.899,-47.513c48.443,-36.391 59.904,-62.844 74.435,-102.487c20.246,-55.236 14.037,-152.504 -25,-204.167c-48.955,-64.786 -209.743,-132.711 -245.834,-191.666c-22.121,-36.137 -11.824,-76.513 8.255,-105.61c17.039,-24.691 41.166,-33.519 58.412,-31.89c31.696,2.993 84.038,31.004 70.833,116.666Z"/></g></g></svg>